<svg xmlns="http://www.w3.org/2000/svg" width="150.234" height="48" viewBox="0 0 150.234 48">
  <g id="Fonri-logo" transform="translate(0 -0.5)">
    <path id="Path_1" data-name="Path 1" d="M0,19.341v6.993L25.35,11.53V.51L3.175,13.764A6.49,6.49,0,0,0,0,19.341Z" transform="translate(0 -0.004)" fill="#efefef"/>
    <path id="Path_2" data-name="Path 2" d="M25.35,23.906V33.75L12.26,41.465A5.8,5.8,0,0,0,9.4,46.458V57.082L0,52.5V42.2a6.579,6.579,0,0,1,3.318-5.7Z" transform="translate(0 -8.815)" fill="#efefef"/>
    <path id="Path_3" data-name="Path 3" d="M96.841,61.715h-.693c0-1.364-1.443-2.422-3.129-2.422s-3.129,1.052-3.129,2.422c0,2.4,7.322,2.4,7.3,5.532,0,1.623-1.822,3.11-4.174,3.11-2.384,0-4.174-1.468-4.174-3.11h.692c0,1.364,1.613,2.422,3.475,2.422,1.822,0,3.475-1.071,3.475-2.422,0-2.455-7.283-2.422-7.3-5.532,0-1.675,1.653-3.11,3.828-3.11S96.841,60.039,96.841,61.715Z" transform="translate(-33.461 -21.883)" fill="#efefef"/>
    <path id="Path_4" data-name="Path 4" d="M110.941,65.629c.5,1.019-.189-1.052,2.7-1.487,1.581-.24,2.92,1.4,2.92,3.234V72.1l.019.364H115.9l-.02-.344-.019-4.734a2.246,2.246,0,1,0-4.455,0V72.1l.019.364h-.679l-.019-.344c0-1.467-.02-2.922-.02-4.39v-.344a2.246,2.246,0,1,0-4.455,0v5.058h-.692V64.149h.692v1.123a2.837,2.837,0,0,1,2.227-1.123A2.494,2.494,0,0,1,110.941,65.629Z" transform="translate(-39.756 -23.96)" fill="#efefef"/>
    <path id="Path_5" data-name="Path 5" d="M126.557,68.3a4,4,0,0,1,3.828-4.149,3.727,3.727,0,0,1,3.129,1.766v-1.76h.693v8.292h-.693v-1.76a3.742,3.742,0,0,1-3.129,1.766A4.007,4.007,0,0,1,126.557,68.3Zm.692,0a3.144,3.144,0,1,0,3.129-3.455A3.3,3.3,0,0,0,127.249,68.3Z" transform="translate(-47.664 -23.97)" fill="#efefef"/>
    <path id="Path_6" data-name="Path 6" d="M143.984,65.728a3.761,3.761,0,0,1,3.266-1.571h.346v.688h-.346a3.1,3.1,0,0,0-3.266,3.37v4.227h-.693V64.156h.693v1.571Z" transform="translate(-53.967 -23.974)" fill="#efefef"/>
    <path id="Path_7" data-name="Path 7" d="M153.151,63.538v5.344c.02,1.052.8,1.571,2.071,1.571h.346v.688h-.346c-1.823,0-2.75-.831-2.763-2.266V63.532h-1.4v-.688h1.4V60.688h.692v2.156h2.417v.688h-2.417Z" transform="translate(-56.891 -22.668)" fill="#efefef"/>
    <path id="Path_8" data-name="Path 8" d="M173.637,58.948V58.6h.692V69.663h6.258v.688h-6.95v-11.4Z" transform="translate(-65.396 -21.883)" fill="#efefef"/>
    <path id="Path_9" data-name="Path 9" d="M187.94,61.49h-.346V60.8h.712v.688h-.366Zm-.346,1.747v-.344h.692v8.292h-.692V63.237Z" transform="translate(-70.652 -22.711)" fill="#efefef"/>
    <path id="Path_10" data-name="Path 10" d="M193.6,62.057h2.417v.688h-2.429v7.6h-.693v-7.6H191.5v-.688h1.4c.1-2.455,1.306-3.474,2.763-3.474h.346v.688h-.346C194.487,59.272,193.7,60.272,193.6,62.057Z" transform="translate(-72.124 -21.876)" fill="#efefef"/>
    <path id="Path_11" data-name="Path 11" d="M206.986,70.377l.555.416a3.824,3.824,0,0,1-3.305,1.662,4.163,4.163,0,1,1,3.828-4.149v.344h-6.937a3.244,3.244,0,0,0,3.109,3.11A3.148,3.148,0,0,0,206.986,70.377Zm-5.859-2.422h6.244a3.122,3.122,0,0,0-6.244,0Z" transform="translate(-75.478 -23.974)" fill="#efefef"/>
    <path id="Path_12" data-name="Path 12" d="M83.094,4.073V9.131H71.363c-4.618,0-6,2.188-6,4.89v2.747H82.924v4.805H65.36V33.027H60.271V14.066c0-5.792,3.018-9.994,10.745-9.994Z" transform="translate(-22.7 -1.346)" fill="#efefef"/>
    <path id="Path_13" data-name="Path 13" d="M119.1,14.188c6.042,0,9.883,3.688,9.883,11.325S125.14,36.837,119.1,36.837H114.31c-6.081,0-9.882-3.688-9.882-11.325s3.8-11.325,9.882-11.325Zm-4.357,4.377c-3.972,0-5.7,2.058-5.7,6.948s1.724,6.909,5.7,6.909h3.925c3.926,0,5.7-2.013,5.7-6.909s-1.77-6.948-5.7-6.948Z" transform="translate(-39.33 -5.155)" fill="#efefef"/>
    <path id="Path_14" data-name="Path 14" d="M217.01,14.188v4.377h-8.028c-2.025,0-2.933.942-2.933,2.916V36.837h-4.572V20.8c0-4.545,1.685-6.6,6.173-6.6h9.36Z" transform="translate(-75.881 -5.155)" fill="#efefef"/>
    <path id="Path_15" data-name="Path 15" d="M238.21.5V5.773h-4.618V.5Zm-.046,8.532V31.682h-4.572V9.032Z" transform="translate(-87.976)" fill="#efefef"/>
    <path id="Path_16" data-name="Path 16" d="M164.012,14.094h-2.456c-7.721,0-11.476,3.643-11.476,9.909v12.74H154.7V24c0-3.558,2.071-5.532,6.858-5.532h2.456c4.788,0,6.858,1.974,6.858,5.532v12.74h4.619V24C175.5,17.743,171.74,14.094,164.012,14.094Z" transform="translate(-56.524 -5.12)" fill="#efefef"/>
  </g>
</svg>
