<svg xmlns="http://www.w3.org/2000/svg" xmlns:xlink="http://www.w3.org/1999/xlink" width="95.999" height="96" viewBox="0 0 95.999 96">
  <defs>
    <clipPath id="clip-path">
      <rect id="Rectangle_24" data-name="Rectangle 24" width="48.005" height="48.016" fill="none"/>
    </clipPath>
    <clipPath id="clip-path-2">
      <path id="Path_20" data-name="Path 20" d="M135.2,96a24.632,24.632,0,0,1-17.471-7.226l-23.3-23.3a24.736,24.736,0,0,1,0-34.942l23.3-23.3a24.736,24.736,0,0,1,34.942,0l23.3,23.3a24.736,24.736,0,0,1,0,34.942l-23.3,23.3A24.632,24.632,0,0,1,135.2,96m0-92.431A21.071,21.071,0,0,0,120.26,9.75l-23.306,23.3a21.161,21.161,0,0,0,0,29.891L120.26,86.25a21.163,21.163,0,0,0,29.889,0l23.306-23.306a21.161,21.161,0,0,0,0-29.891L150.148,9.75A21.071,21.071,0,0,0,135.2,3.57" transform="translate(-87.204 0)" fill="#fff"/>
    </clipPath>
    <linearGradient id="linear-gradient" x1="0.5" x2="0.5" y2="1" gradientUnits="objectBoundingBox">
      <stop offset="0" stop-color="#777ef3"/>
      <stop offset="0.837" stop-color="#6b7a51" stop-opacity="0"/>
      <stop offset="1" stop-color="#697932" stop-opacity="0"/>
    </linearGradient>
  </defs>
  <g id="Group_97" data-name="Group 97" transform="translate(-80 -226.113)">
    <g id="Group_15" data-name="Group 15" transform="translate(110.871 245.423)">
      <g id="Group_14" data-name="Group 14" transform="translate(0 0)" clip-path="url(#clip-path)">
        <path id="Path_8" data-name="Path 8" d="M100.255,17.327V10.456a.346.346,0,0,1,.346-.346h2.615a3.019,3.019,0,0,1,1.237.238,1.967,1.967,0,0,1,.843.686,1.873,1.873,0,0,1,.308,1.086v.108a1.818,1.818,0,0,1-.367,1.2,1.732,1.732,0,0,1-.864.578v.13a.98.98,0,0,1,.637.238.915.915,0,0,1,.259.724v2.226a.346.346,0,1,1-.691,0v-2.15a.7.7,0,0,0-.189-.529.785.785,0,0,0-.567-.184h-2.529a.346.346,0,0,0-.346.346v2.517a.346.346,0,1,1-.692,0m.692-3.835a.346.346,0,0,0,.346.346h1.859a1.939,1.939,0,0,0,1.3-.394,1.406,1.406,0,0,0,.459-1.129V12.26a1.424,1.424,0,0,0-.448-1.129,1.932,1.932,0,0,0-1.313-.395h-1.859a.346.346,0,0,0-.346.346Z" transform="translate(-62.512 -6.304)" fill="#777ef3"/>
        <path id="Path_9" data-name="Path 9" d="M0,59.192V20.456a.973.973,0,0,1,.973-.972H6.7a.973.973,0,0,1,.973.972v14.85a.973.973,0,0,0,.973.973H21.808a.973.973,0,0,0,.972-.973V20.456a.973.973,0,0,1,.973-.972H29.48a.973.973,0,0,1,.973.972V59.192a.973.973,0,0,1-.973.973H23.753a.973.973,0,0,1-.973-.973V44.225a.973.973,0,0,0-.972-.973H8.643a.973.973,0,0,0-.973.973V59.192a.973.973,0,0,1-.973.973H.973A.973.973,0,0,1,0,59.192" transform="translate(0 -12.149)" fill="#777ef3"/>
        <path id="Path_10" data-name="Path 10" d="M94.792,15.176a3.894,3.894,0,0,1-2.762-1.142L88.346,10.35a3.91,3.91,0,0,1,0-5.524L92.03,1.142a3.91,3.91,0,0,1,5.524,0l3.684,3.684a3.91,3.91,0,0,1,0,5.524l-3.684,3.684a3.894,3.894,0,0,1-2.762,1.142m0-14.611a3.331,3.331,0,0,0-2.362.977L88.745,5.225a3.345,3.345,0,0,0,0,4.725l3.684,3.684a3.345,3.345,0,0,0,4.725,0l3.684-3.684a3.345,3.345,0,0,0,0-4.725L97.154,1.541A3.331,3.331,0,0,0,94.792.564" transform="translate(-54.375 0)" fill="#fff"/>
      </g>
    </g>
    <g id="Mask_Group_2" data-name="Mask Group 2" transform="translate(80 226.113)" clip-path="url(#clip-path-2)">
      <rect id="Rectangle_32" data-name="Rectangle 32" width="96.071" height="134.372" transform="translate(96.066 0) rotate(90)" opacity="0.636" fill="url(#linear-gradient)"/>
    </g>
  </g>
</svg>
