<svg xmlns="http://www.w3.org/2000/svg" width="17.788" height="17.944" viewBox="0 0 17.788 17.944">
  <path id="tooltips-2-line" d="M16.209,8.315H9.894A1.579,1.579,0,0,0,8.315,9.894V14.63a1.579,1.579,0,0,0,1.579,1.579h.734a1.579,1.579,0,0,1,1.314.7l.453.68a.789.789,0,0,0,1.314,0l.453-.68a1.579,1.579,0,0,1,1.314-.7h.734a1.579,1.579,0,0,0,1.579-1.579V9.894A1.579,1.579,0,0,0,16.209,8.315ZM11.473,5.947V3.579A1.579,1.579,0,0,0,9.894,2H3.579A1.579,1.579,0,0,0,2,3.579V8.315A1.579,1.579,0,0,0,3.579,9.894h.734a1.579,1.579,0,0,1,1.314.7l.32.481" transform="translate(-1 -1)" fill="none" stroke="#272727" stroke-linecap="round" stroke-linejoin="round" stroke-width="2"/>
</svg>
