<svg xmlns="http://www.w3.org/2000/svg" width="17.134" height="17.5" viewBox="0 0 17.134 17.5">
  <g id="settings-cog-line" transform="translate(-2.456 -2.25)">
    <path id="Path_616" data-name="Path 616" d="M12.8,19H9.245l-.49-2.2a6.214,6.214,0,0,1-1.617-.933l-2.155.678L3.206,13.461,4.87,11.934a6.271,6.271,0,0,1,0-1.867L3.206,8.54,4.984,5.46l2.155.678A6.215,6.215,0,0,1,8.756,5.2L9.245,3H12.8l.49,2.2a6.215,6.215,0,0,1,1.617.933l2.155-.678L18.84,8.539l-1.664,1.527a6.267,6.267,0,0,1,0,1.867L18.84,13.46l-1.778,3.079-2.155-.678a6.213,6.213,0,0,1-1.617.935Z" fill="none" stroke="#fff" stroke-linecap="round" stroke-linejoin="round" stroke-width="1.5"/>
    <circle id="Ellipse_964" data-name="Ellipse 964" cx="3" cy="3" r="3" transform="translate(8.023 8)" fill="none" stroke="#fff" stroke-width="1.5"/>
  </g>
</svg>
